# Blender v2.78 (sub 0) OBJ File: ''
# www.blender.org
mtllib Tigger.mtl
o Cube
v 0.300000 -0.060182 0.210000
v 0.210000 -0.060182 0.300000
v 0.210000 0.060182 0.300000
v 0.300000 0.060182 0.210000
v 0.210000 -0.060182 -0.300000
v 0.300000 -0.060182 -0.210000
v 0.300000 0.060182 -0.210000
v 0.210000 0.060182 -0.300000
v -0.300000 -0.060182 -0.210000
v -0.210000 -0.060182 -0.300000
v -0.210000 0.060182 -0.300000
v -0.300000 0.060182 -0.210000
v -0.210000 -0.060182 0.300000
v -0.300000 -0.060182 0.210000
v -0.300000 0.060182 0.210000
v -0.210000 0.060182 0.300000
vt 0.4956 0.2785
vt 0.5347 0.3176
vt 0.5347 0.5000
vt 0.4956 0.5391
vt 0.3132 0.5391
vt 0.2741 0.5000
vt 0.2741 0.3176
vt 0.3132 0.2785
vt 0.0135 0.0799
vt 0.2741 0.0799
vt 0.2741 0.2623
vt 0.0135 0.2623
vt 0.2741 0.9754
vt 0.0135 0.9754
vt 0.0135 0.7930
vt 0.2741 0.7930
vt 0.0135 0.7377
vt 0.2741 0.7377
vt 0.0135 0.0246
vt 0.2741 0.0246
vt 0.9243 0.8871
vt 0.8645 0.9470
vt 0.5850 0.9470
vt 0.5252 0.8871
vt 0.5252 0.6077
vt 0.5850 0.5478
vt 0.8645 0.5478
vt 0.9243 0.6077
vt 0.0135 0.3176
vt 0.0135 0.5553
vt 0.2741 0.5553
vt 0.0135 0.5000
vn 0.0000 -1.0000 0.0000
vn 0.0000 0.0000 -1.0000
vn 1.0000 0.0000 0.0000
vn 0.7071 -0.0000 0.7071
vn 0.7071 0.0000 -0.7071
vn 0.0000 1.0000 0.0000
vn -0.7071 -0.0000 -0.7071
vn -0.0000 -0.0000 1.0000
vn -0.7071 0.0000 0.7071
vn -1.0000 -0.0000 -0.0000
usemtl Material
s off
f 5/1/1 6/2/1 1/3/1 2/4/1 13/5/1 14/6/1 9/7/1 10/8/1
f 8/9/2 5/10/2 10/11/2 11/12/2
f 6/13/3 7/14/3 4/15/3 1/16/3
f 1/16/4 4/15/4 3/17/4 2/18/4
f 5/10/5 8/9/5 7/19/5 6/20/5
f 7/21/6 8/22/6 11/23/6 12/24/6 15/25/6 16/26/6 3/27/6 4/28/6
f 9/7/7 12/29/7 11/12/7 10/11/7
f 2/18/8 3/17/8 16/30/8 13/31/8
f 13/31/9 16/30/9 15/32/9 14/6/9
f 14/6/10 15/32/10 12/29/10 9/7/10
